<svg width="20" height="20" viewBox="0 0 20 20" fill="none" xmlns="http://www.w3.org/2000/svg">
    <path fill-rule="evenodd" clip-rule="evenodd" d="M6.29648 2.23693C7.20645 1.86001 8.18174 1.66602 9.16668 1.66602C10.1516 1.66602 11.1269 1.86001 12.0369 2.23693C12.9468 2.61385 13.7736 3.16631 14.4701 3.86277C15.1666 4.55922 15.719 5.38603 16.0959 6.296C16.4729 7.20596 16.6668 8.18125 16.6668 9.16619C16.6668 10.1511 16.4728 11.1264 16.0959 12.0364C15.8258 12.6886 15.4654 13.2981 15.0265 13.8475L18.0893 16.9103C18.4147 17.2357 18.4147 17.7633 18.0893 18.0888C17.7638 18.4142 17.2362 18.4142 16.9108 18.0888L13.848 15.026C12.5253 16.0828 10.8761 16.6664 9.16668 16.6664C7.17751 16.6664 5.26981 15.8762 3.86325 14.4696C2.4567 13.0631 1.6665 11.1554 1.6665 9.16619C1.6665 7.17702 2.4567 5.26932 3.86325 3.86277C4.55971 3.16631 5.38652 2.61385 6.29648 2.23693ZM9.16668 3.33268C8.40061 3.33268 7.64204 3.48357 6.93429 3.77673C6.22654 4.06989 5.58346 4.49959 5.04176 5.04128C3.94777 6.13527 3.33317 7.61905 3.33317 9.16619C3.33317 10.7133 3.94777 12.1971 5.04176 13.2911C6.13576 14.3851 7.61953 14.9997 9.16668 14.9997C10.7138 14.9997 12.1976 14.3851 13.2916 13.2911C13.8333 12.7494 14.263 12.1063 14.5561 11.3986C14.8493 10.6908 15.0002 9.93225 15.0002 9.16619C15.0002 8.40012 14.8493 7.64155 14.5561 6.9338C14.263 6.22605 13.8333 5.58297 13.2916 5.04128C12.7499 4.49959 12.1068 4.06989 11.3991 3.77673C10.6913 3.48357 9.93274 3.33268 9.16668 3.33268Z" fill="#6B7280"/>
</svg>
